<mxfile host="app.diagrams.net" agent="Mozilla/5.0 (Windows NT 10.0; Win64; x64; rv:131.0) Gecko/20100101 Firefox/131.0" version="24.7.17">
  <diagram name="Página-1" id="lic_7piAqqJ5NQ6nmA9-">
    <mxGraphModel dx="2314" dy="1152" grid="1" gridSize="10" guides="1" tooltips="1" connect="1" arrows="1" fold="1" page="1" pageScale="1" pageWidth="827" pageHeight="1169" math="0" shadow="0">
      <root>
        <mxCell id="0" />
        <mxCell id="1" parent="0" />
        <mxCell id="_j6me6wckf-G4g8u8vOV-1" value="" style="ellipse;whiteSpace=wrap;html=1;aspect=fixed;fillColor=#007FFF;" vertex="1" parent="1">
          <mxGeometry x="374" y="545" width="80" height="80" as="geometry" />
        </mxCell>
        <mxCell id="_j6me6wckf-G4g8u8vOV-2" value="" style="ellipse;whiteSpace=wrap;html=1;aspect=fixed;fillColor=#009900;" vertex="1" parent="1">
          <mxGeometry x="610" y="930" width="80" height="80" as="geometry" />
        </mxCell>
        <mxCell id="_j6me6wckf-G4g8u8vOV-12" style="edgeStyle=orthogonalEdgeStyle;rounded=0;orthogonalLoop=1;jettySize=auto;html=1;exitX=1;exitY=0.5;exitDx=0;exitDy=0;entryX=0;entryY=1;entryDx=0;entryDy=0;" edge="1" parent="1" source="_j6me6wckf-G4g8u8vOV-3" target="_j6me6wckf-G4g8u8vOV-1">
          <mxGeometry relative="1" as="geometry">
            <Array as="points">
              <mxPoint x="250" y="730" />
              <mxPoint x="386" y="730" />
            </Array>
          </mxGeometry>
        </mxCell>
        <mxCell id="_j6me6wckf-G4g8u8vOV-3" value="" style="ellipse;whiteSpace=wrap;html=1;aspect=fixed;fillColor=#009900;" vertex="1" parent="1">
          <mxGeometry x="100" y="920" width="80" height="80" as="geometry" />
        </mxCell>
        <mxCell id="_j6me6wckf-G4g8u8vOV-4" value="" style="ellipse;whiteSpace=wrap;html=1;aspect=fixed;fillColor=#009900;" vertex="1" parent="1">
          <mxGeometry x="160" y="80" width="80" height="80" as="geometry" />
        </mxCell>
        <mxCell id="_j6me6wckf-G4g8u8vOV-9" style="edgeStyle=orthogonalEdgeStyle;rounded=0;orthogonalLoop=1;jettySize=auto;html=1;exitX=0;exitY=1;exitDx=0;exitDy=0;entryX=1;entryY=0;entryDx=0;entryDy=0;" edge="1" parent="1" source="_j6me6wckf-G4g8u8vOV-5" target="_j6me6wckf-G4g8u8vOV-1">
          <mxGeometry relative="1" as="geometry" />
        </mxCell>
        <mxCell id="_j6me6wckf-G4g8u8vOV-5" value="" style="ellipse;whiteSpace=wrap;html=1;aspect=fixed;fillColor=#009900;" vertex="1" parent="1">
          <mxGeometry x="530" y="80" width="80" height="80" as="geometry" />
        </mxCell>
        <mxCell id="_j6me6wckf-G4g8u8vOV-11" style="edgeStyle=orthogonalEdgeStyle;rounded=0;orthogonalLoop=1;jettySize=auto;html=1;exitX=1;exitY=0.5;exitDx=0;exitDy=0;entryX=0;entryY=0.5;entryDx=0;entryDy=0;" edge="1" parent="1" source="_j6me6wckf-G4g8u8vOV-6" target="_j6me6wckf-G4g8u8vOV-1">
          <mxGeometry relative="1" as="geometry" />
        </mxCell>
        <mxCell id="_j6me6wckf-G4g8u8vOV-6" value="" style="ellipse;whiteSpace=wrap;html=1;aspect=fixed;fillColor=#009900;" vertex="1" parent="1">
          <mxGeometry x="30" y="545" width="80" height="80" as="geometry" />
        </mxCell>
        <mxCell id="_j6me6wckf-G4g8u8vOV-10" style="edgeStyle=orthogonalEdgeStyle;rounded=0;orthogonalLoop=1;jettySize=auto;html=1;exitX=0;exitY=0.5;exitDx=0;exitDy=0;entryX=1;entryY=0.5;entryDx=0;entryDy=0;" edge="1" parent="1" source="_j6me6wckf-G4g8u8vOV-7" target="_j6me6wckf-G4g8u8vOV-1">
          <mxGeometry relative="1" as="geometry" />
        </mxCell>
        <mxCell id="_j6me6wckf-G4g8u8vOV-7" value="" style="ellipse;whiteSpace=wrap;html=1;aspect=fixed;fillColor=#009900;" vertex="1" parent="1">
          <mxGeometry x="720" y="545" width="80" height="80" as="geometry" />
        </mxCell>
        <mxCell id="_j6me6wckf-G4g8u8vOV-8" style="edgeStyle=orthogonalEdgeStyle;rounded=0;orthogonalLoop=1;jettySize=auto;html=1;exitX=1;exitY=1;exitDx=0;exitDy=0;entryX=0.075;entryY=0.188;entryDx=0;entryDy=0;entryPerimeter=0;" edge="1" parent="1" source="_j6me6wckf-G4g8u8vOV-4" target="_j6me6wckf-G4g8u8vOV-1">
          <mxGeometry relative="1" as="geometry" />
        </mxCell>
        <mxCell id="_j6me6wckf-G4g8u8vOV-14" style="edgeStyle=orthogonalEdgeStyle;rounded=0;orthogonalLoop=1;jettySize=auto;html=1;exitX=0;exitY=0.5;exitDx=0;exitDy=0;entryX=0.825;entryY=0.95;entryDx=0;entryDy=0;entryPerimeter=0;" edge="1" parent="1" source="_j6me6wckf-G4g8u8vOV-2" target="_j6me6wckf-G4g8u8vOV-1">
          <mxGeometry relative="1" as="geometry">
            <Array as="points">
              <mxPoint x="560" y="970" />
              <mxPoint x="560" y="730" />
              <mxPoint x="440" y="730" />
            </Array>
          </mxGeometry>
        </mxCell>
        <mxCell id="_j6me6wckf-G4g8u8vOV-15" value="&lt;div&gt;GoSolar&lt;/div&gt;&lt;div&gt;(Sistema)&lt;br&gt;&lt;/div&gt;" style="text;html=1;align=center;verticalAlign=middle;whiteSpace=wrap;rounded=0;" vertex="1" parent="1">
          <mxGeometry x="384" y="570" width="60" height="30" as="geometry" />
        </mxCell>
        <mxCell id="_j6me6wckf-G4g8u8vOV-17" value="&lt;div&gt;Clientes&lt;/div&gt;" style="text;html=1;align=center;verticalAlign=middle;whiteSpace=wrap;rounded=0;" vertex="1" parent="1">
          <mxGeometry x="170" y="105" width="60" height="30" as="geometry" />
        </mxCell>
        <mxCell id="_j6me6wckf-G4g8u8vOV-18" value="Proveedores" style="text;html=1;align=center;verticalAlign=middle;whiteSpace=wrap;rounded=0;" vertex="1" parent="1">
          <mxGeometry x="540" y="105" width="60" height="30" as="geometry" />
        </mxCell>
        <mxCell id="_j6me6wckf-G4g8u8vOV-19" value="Red Eléctrica" style="text;html=1;align=center;verticalAlign=middle;whiteSpace=wrap;rounded=0;" vertex="1" parent="1">
          <mxGeometry x="730" y="570" width="60" height="30" as="geometry" />
        </mxCell>
        <mxCell id="_j6me6wckf-G4g8u8vOV-20" value="&lt;div&gt;Empresa&lt;/div&gt;&lt;div&gt;Mantenedora&lt;br&gt;&lt;/div&gt;" style="text;html=1;align=center;verticalAlign=middle;whiteSpace=wrap;rounded=0;" vertex="1" parent="1">
          <mxGeometry x="40" y="570" width="60" height="30" as="geometry" />
        </mxCell>
        <mxCell id="_j6me6wckf-G4g8u8vOV-21" value="Bancos" style="text;html=1;align=center;verticalAlign=middle;whiteSpace=wrap;rounded=0;" vertex="1" parent="1">
          <mxGeometry x="110" y="945" width="60" height="30" as="geometry" />
        </mxCell>
        <mxCell id="_j6me6wckf-G4g8u8vOV-22" value="&lt;div&gt;Centros &lt;br&gt;&lt;/div&gt;&lt;div&gt;Asociados&lt;br&gt;&lt;/div&gt;" style="text;html=1;align=center;verticalAlign=middle;whiteSpace=wrap;rounded=0;" vertex="1" parent="1">
          <mxGeometry x="620" y="955" width="60" height="30" as="geometry" />
        </mxCell>
      </root>
    </mxGraphModel>
  </diagram>
</mxfile>
